# xmcd
#
# Track frame offsets:
# 150
# 600
# 24310
# 46833
# 73163
# 96809
# 122730
# 144518
# 166058
# 187692
# 211661
# 236066
# 265410
# 283318
# 288817
#
# Disc length: 3895 seconds
#
# Revision: 0
# Processed by: cddbd v1.5.1PL2 Copyright (c) Steve Scherf et al.
# Submitted via: Audion 3.0.2 (http://www.panic.com/audion/)
#
DISCID=cc0f350f
DTITLE=Per Olov Enquist - Boken om Blanche och Marie - CD-BOK 07/07
DYEAR=1900
DGENRE=
TTITLE0=01-07
TTITLE1=02-07
TTITLE2=03-07
TTITLE3=04-07
TTITLE4=05-07
TTITLE5=06-07
TTITLE6=07-07
TTITLE7=08-07
TTITLE8=09-07
TTITLE9=10-07
TTITLE10=11-07
TTITLE11=12-07
TTITLE12=13-07
TTITLE13=14-07
TTITLE14=15-07
EXTD=
EXTT0=
EXTT1=
EXTT2=
EXTT3=
EXTT4=
EXTT5=
EXTT6=
EXTT7=
EXTT8=
EXTT9=
EXTT10=
EXTT11=
EXTT12=
EXTT13=
EXTT14=
PLAYORDER=
